<svg id="Layer_5" enable-background="new 0 0 64 64" height="512" viewBox="0 0 64 64" width="512" xmlns="http://www.w3.org/2000/svg" xmlns:xlink="http://www.w3.org/1999/xlink"><linearGradient id="SVGID_1_" gradientUnits="userSpaceOnUse" x1="32" x2="32" y1="63" y2="1"><stop offset="0" stop-color="#9f2fff"/><stop offset="1" stop-color="#0bb1d3"/></linearGradient><path d="m46 17v-.095c0-1.051-.855-1.905-1.906-1.905h-.188c-1.051 0-1.906.854-1.906 1.905 0 .821.523 1.549 1.303 1.809l2.026.676c1.597.532 2.67 2.021 2.67 3.705 0 1.84-1.284 3.378-3 3.789v2.116h-2v-2.117c-1.716-.411-3-1.948-3-3.789v-1.094h2v1.095c.001 1.051.856 1.905 1.907 1.905h.188c1.051 0 1.906-.854 1.906-1.905 0-.821-.523-1.549-1.303-1.809l-2.027-.676c-1.597-.532-2.67-2.021-2.67-3.705 0-1.84 1.284-3.378 3-3.789v-2.116h2v2.117c1.716.411 3 1.948 3 3.789zm17 3c0 9.104-6.439 16.725-15 18.568v24.432h-44v-10h-.382c-1.444 0-2.618-1.175-2.618-2.618 0-.404.096-.81.276-1.171l3.382-6.764c.446-.892 1.344-1.447 2.342-1.447s1.896.555 2.342 1.447l3.382 6.764c.18.361.276.767.276 1.171 0 1.443-1.174 2.618-2.618 2.618h-.382v8h7v-17h-.382c-1.444 0-2.618-1.175-2.618-2.618 0-.404.096-.81.276-1.171l3.382-6.764c.446-.892 1.344-1.447 2.342-1.447s1.896.555 2.342 1.447l3.382 6.764c.18.361.276.767.276 1.171 0 1.443-1.174 2.618-2.618 2.618h-.382v17h7v-10h-.382c-1.444 0-2.618-1.175-2.618-2.618 0-.404.096-.81.276-1.171l3.382-6.764c.446-.892 1.344-1.447 2.342-1.447s1.896.555 2.342 1.447l3.382 6.764c.18.361.276.767.276 1.171 0 1.443-1.174 2.618-2.618 2.618h-.382v10h4v-22.432c-5.883-1.267-10.748-5.268-13.225-10.601l-3.352 1.341-3.927-10.473c-.483.106-.983.165-1.496.165-.816 0-1.597-.148-2.325-.406l-6 11.454c.808.732 1.325 1.778 1.325 2.952 0 2.206-1.794 4-4 4s-4-1.794-4-4 1.794-4 4-4c.313 0 .615.045.907.113l5.997-11.449c-1.756-1.273-2.904-3.335-2.904-5.664 0-3.859 3.14-7 7-7s7 3.141 7 7c0 2.639-1.469 4.94-3.632 6.133l3.209 8.559 1.45-.58c-.655-1.922-1.027-3.972-1.027-6.112 0-10.477 8.523-19 19-19s19 8.523 19 19zm-54 13c0-1.103-.897-2-2-2s-2 .897-2 2 .897 2 2 2 2-.897 2-2zm9-16c2.757 0 5-2.243 5-5s-2.243-5-5-5-5 2.243-5 5 2.243 5 5 5zm-10 34h2.382c.341 0 .618-.277.618-.618 0-.096-.022-.191-.065-.276l-3.382-6.764c-.211-.422-.895-.422-1.105 0l-3.382 6.764c-.044.084-.066.18-.066.276 0 .341.277.618.618.618h2.382v10h2zm47-31c0-6.065-4.935-11-11-11s-11 4.935-11 11 4.935 11 11 11 11-4.935 11-11zm.275-12.688c-2.77-2.464-6.342-4.031-10.275-4.261v4c2.833.217 5.411 1.341 7.447 3.088zm-12.275-4.261c-3.933.231-7.505 1.797-10.275 4.261l2.827 2.827c2.037-1.747 4.615-2.871 7.448-3.088zm-11.689 5.675c-2.464 2.77-4.03 6.341-4.261 10.274h4c.217-2.833 1.341-5.411 3.088-7.447zm-4.26 12.274c.23 3.933 1.797 7.505 4.261 10.274l2.827-2.827c-1.747-2.036-2.871-4.615-3.088-7.447zm5.674 11.688c2.77 2.464 6.341 4.03 10.275 4.261v-4c-2.833-.217-5.411-1.341-7.447-3.088zm12.275 4.261c3.933-.231 7.505-1.797 10.275-4.261l-2.827-2.827c-2.036 1.747-4.615 2.871-7.447 3.088v4zm11.689-5.675c2.464-2.77 4.03-6.341 4.261-10.274h-4c-.217 2.833-1.341 5.411-3.088 7.447zm4.26-12.274c-.23-3.933-1.797-7.505-4.261-10.274l-2.827 2.827c1.747 2.036 2.871 4.615 3.088 7.447zm-28.949 30v12h2v-12h2.382c.341 0 .618-.277.618-.618 0-.096-.022-.191-.065-.276l-3.382-6.764c-.211-.422-.895-.422-1.105 0l-3.382 6.764c-.044.084-.066.18-.066.276 0 .341.277.618.618.618zm-13-7v19h2v-19h2.382c.341 0 .618-.277.618-.618 0-.096-.022-.191-.065-.276l-3.382-6.764c-.211-.422-.895-.422-1.105 0l-3.382 6.764c-.044.084-.066.18-.066.276 0 .341.277.618.618.618zm27-3.107c-.658.069-1.324.107-2 .107s-1.342-.038-2-.107v22.107h4zm-25-26.893c0 1.654-1.346 3-3 3s-3-1.346-3-3 1.346-3 3-3 3 1.346 3 3zm-2 0c0-.552-.449-1-1-1s-1 .448-1 1 .449 1 1 1 1-.448 1-1z" fill="url(#SVGID_1_)"/></svg>